<svg xmlns="http://www.w3.org/2000/svg" width="95.75" height="63.963" viewBox="0 0 95.75 63.963">
  <g id="logo" transform="translate(-158.177 -138.584)">
    <g id="Group_1" data-name="Group 1" transform="translate(186.894 138.584)">
      <path id="Path_1" data-name="Path 1" d="M326.293,166.291a8.852,8.852,0,0,0-8.842,8.842V185.4H320.5V175.133a5.793,5.793,0,1,1,11.586,0V185.4h3.049V175.133A8.852,8.852,0,0,0,326.293,166.291Z" transform="translate(-307.406 -159.548)" fill="#d8006b"/>
      <path id="Path_2" data-name="Path 2" d="M295.335,138.584a19.159,19.159,0,0,0-19.159,19.159v12.772h3.016l5.979,7.03v-7.03h16.55a12.772,12.772,0,0,0,12.772-12.772A19.159,19.159,0,0,0,295.335,138.584Zm6.386,28.821H279.286v-9.662a16.048,16.048,0,0,1,32.1,0A9.673,9.673,0,0,1,301.721,167.4Z" transform="translate(-276.176 -138.584)" fill="#d8006b"/>
    </g>
    <g id="Group_2" data-name="Group 2" transform="translate(158.177 172.445)">
      <path id="Path_3" data-name="Path 3" d="M175.564,338.869h-2.83V327.952a5.863,5.863,0,0,0-11.726,0v10.917h-2.83V327.952a8.693,8.693,0,1,1,17.387,0Z" transform="translate(-158.177 -309.15)" fill="#d8006b"/>
      <path id="Path_4" data-name="Path 4" d="M235.375,338.869h-2.831V327.952a5.863,5.863,0,1,0-11.725,0v10.917h-2.83V327.952a8.693,8.693,0,1,1,17.386,0Z" transform="translate(-203.433 -309.15)" fill="#d8006b"/>
      <rect id="Rectangle_2" data-name="Rectangle 2" width="2.831" height="29.719" transform="translate(71.64)" fill="#d8006b"/>
      <path id="Path_5" data-name="Path 5" d="M393.506,319.286a9.8,9.8,0,0,0-9.791,9.791v.4a9.792,9.792,0,1,0,19.583,0v-.4A9.8,9.8,0,0,0,393.506,319.286Zm6.93,10.195a6.93,6.93,0,1,1-13.86,0v-.4a6.93,6.93,0,0,1,13.86,0Z" transform="translate(-328.828 -309.171)" fill="#d8006b"/>
      <path id="Path_6" data-name="Path 6" d="M306.067,319.286a9.8,9.8,0,0,0-9.792,9.791v.4a9.792,9.792,0,1,0,19.583,0v-.4A9.8,9.8,0,0,0,306.067,319.286ZM313,329.481a6.93,6.93,0,1,1-13.859,0v-.4a6.93,6.93,0,0,1,13.859,0Z" transform="translate(-262.667 -309.171)" fill="#d8006b"/>
      <path id="Path_7" data-name="Path 7" d="M480.946,319.286a9.8,9.8,0,0,0-9.792,9.791v.4a9.792,9.792,0,1,0,19.583,0v-.4A9.8,9.8,0,0,0,480.946,319.286Zm6.929,10.195a6.93,6.93,0,1,1-13.86,0v-.4a6.93,6.93,0,0,1,13.86,0Z" transform="translate(-394.987 -309.171)" fill="#d8006b"/>
    </g>
  </g>
</svg>
