<svg xmlns="http://www.w3.org/2000/svg" width="20" height="20" viewBox="0 0 20 20">
  <g id="preferences" transform="translate(-1 -1)">
    <path id="Path_197" data-name="Path 197" d="M31.022,7h-10.6a.424.424,0,0,0,0,.848h10.6a.424.424,0,0,0,0-.848Z" transform="translate(-10.446 -3.457)" fill="#818e94"/>
    <path id="Path_198" data-name="Path 198" d="M7.359,1H3.967a.424.424,0,0,0-.424.424v2.12H1.424a.424.424,0,1,0,0,.848h2.12v2.12a.424.424,0,0,0,.424.424H7.359a.424.424,0,0,0,.424-.424V1.424A.424.424,0,0,0,7.359,1Z" fill="#818e94"/>
    <path id="Path_199" data-name="Path 199" d="M1.424,23h10.6a.424.424,0,1,1,0,.848H1.424a.424.424,0,1,1,0-.848Z" transform="translate(0 -12.424)" fill="#818e94"/>
    <path id="Path_200" data-name="Path 200" d="M31.424,17h3.391a.424.424,0,0,1,.424.424v2.12h2.12a.424.424,0,0,1,0,.848h-2.12v2.12a.424.424,0,0,1-.424.424H31.424A.424.424,0,0,1,31,22.511V17.424A.424.424,0,0,1,31.424,17Z" transform="translate(-16.783 -8.967)" fill="#818e94"/>
    <path id="Path_201" data-name="Path 201" d="M31.022,39h-10.6a.424.424,0,0,0,0,.848h10.6a.424.424,0,0,0,0-.848Z" transform="translate(-10.446 -21.391)" fill="#818e94"/>
    <path id="Path_202" data-name="Path 202" d="M7.359,33H3.967a.424.424,0,0,0-.424.424v2.12H1.424a.424.424,0,1,0,0,.848h2.12v2.12a.424.424,0,0,0,.424.424H7.359a.424.424,0,0,0,.424-.424V33.424A.424.424,0,0,0,7.359,33Z" transform="translate(0 -17.935)" fill="#818e94"/>
  </g>
</svg>
