<svg xmlns="http://www.w3.org/2000/svg" width="20" height="20" viewBox="0 0 20 20">
  <g id="calendar-60" transform="translate(-1 -1)">
    <path id="Tracé_409" data-name="Tracé 409" d="M12.428,1h-.952A.476.476,0,0,0,11,1.476V4.809a.476.476,0,0,0,.476.476h.952a.476.476,0,0,0,.476-.476V1.476A.476.476,0,0,0,12.428,1Z" transform="translate(-5.692)" fill="#e5007d"/>
    <path id="Tracé_410" data-name="Tracé 410" d="M34.428,5.285h-.952A.476.476,0,0,1,33,4.809V1.476A.476.476,0,0,1,33.476,1h.952a.476.476,0,0,1,.476.476V4.809A.476.476,0,0,1,34.428,5.285Z" transform="translate(-18.213)" fill="#e5007d"/>
    <path id="Tracé_411" data-name="Tracé 411" d="M20.13,5H17.522V7.585a.433.433,0,0,1-.435.431H14.478a.433.433,0,0,1-.435-.431V5H7.957V7.585a.433.433,0,0,1-.435.431H4.913a.433.433,0,0,1-.435-.431V5H1.87A.865.865,0,0,0,1,5.862V22.234a.865.865,0,0,0,.87.862H20.13a.865.865,0,0,0,.87-.862V5.862A.865.865,0,0,0,20.13,5ZM19.7,22.234H2.3A.433.433,0,0,1,1.87,21.8V10.17A.433.433,0,0,1,2.3,9.739H19.7a.433.433,0,0,1,.435.431V21.8A.433.433,0,0,1,19.7,22.234Z" transform="translate(0 -2.095)" fill="#e5007d"/>
  </g>
</svg>
