<svg xmlns="http://www.w3.org/2000/svg" width="17.265" height="17.265" viewBox="0 0 17.265 17.265">
  <path id="emoticon-happy-outline" d="M17.539,10.633a6.906,6.906,0,1,0-6.906,6.906,6.906,6.906,0,0,0,6.906-6.906m1.727,0A8.633,8.633,0,1,1,10.633,2a8.633,8.633,0,0,1,8.633,8.633M8.906,8.475A1.295,1.295,0,1,1,7.611,7.18,1.328,1.328,0,0,1,8.906,8.475m6.043,0A1.295,1.295,0,1,1,13.654,7.18a1.328,1.328,0,0,1,1.295,1.295m-4.316,6.673a4.714,4.714,0,0,1-3.617-1.563l1.226-1.226a2.821,2.821,0,0,0,2.391,1.062,2.821,2.821,0,0,0,2.391-1.062l1.226,1.226A4.714,4.714,0,0,1,10.633,15.148Z" transform="translate(-2 -2)" fill="#e5007d"/>
</svg>
