<svg xmlns="http://www.w3.org/2000/svg" width="36.744" height="37.358" viewBox="0 0 36.744 37.358">
  <g id="Group_1017" data-name="Group 1017" transform="translate(0)">
    <path id="Path_127" data-name="Path 127" d="M-130.782-95.665a2.06,2.06,0,0,0-2.057,2.057v.12a2.06,2.06,0,0,0,2.057,2.058,2.06,2.06,0,0,0,2.057-2.058v-.12A2.06,2.06,0,0,0-130.782-95.665Z" transform="translate(160.459 110.664)" fill="#b4b4b4"/>
    <path id="Path_128" data-name="Path 128" d="M-149.9-95.665a2.059,2.059,0,0,0-2.057,2.057v.12a2.06,2.06,0,0,0,2.057,2.058,2.06,2.06,0,0,0,2.057-2.058v-.12A2.059,2.059,0,0,0-149.9-95.665Z" transform="translate(173.264 110.664)" fill="#b4b4b4"/>
    <path id="Path_129" data-name="Path 129" d="M-169.027-95.665a2.06,2.06,0,0,0-2.057,2.057v.12a2.06,2.06,0,0,0,2.057,2.058,2.06,2.06,0,0,0,2.057-2.058v-.12A2.06,2.06,0,0,0-169.027-95.665Z" transform="translate(186.07 110.664)" fill="#b4b4b4"/>
    <path id="Path_130" data-name="Path 130" d="M-198.078-141.069A18.371,18.371,0,0,0-216.45-122.7v12.247h2.892l5.733,6.74v-6.74h15.871A12.247,12.247,0,0,0-179.706-122.7,18.372,18.372,0,0,0-198.078-141.069Zm-4.729,19.969h-.84v-3.241a1.742,1.742,0,0,0-1.74-1.741,1.742,1.742,0,0,0-1.74,1.741v3.241h-.84v-3.241a1.743,1.743,0,0,0-1.741-1.741,1.743,1.743,0,0,0-1.741,1.741v3.241h-.84v-3.241a2.583,2.583,0,0,1,2.581-2.581,2.578,2.578,0,0,1,2.16,1.174,2.578,2.578,0,0,1,2.16-1.174,2.583,2.583,0,0,1,2.581,2.581Zm6.308-2.793a2.91,2.91,0,0,1-2.907,2.907,2.91,2.91,0,0,1-2.907-2.907v-.12a2.91,2.91,0,0,1,2.907-2.907,2.91,2.91,0,0,1,2.907,2.907Zm6.317-.12v2.913h-.84v-.752a2.9,2.9,0,0,1-2.067.866A2.91,2.91,0,0,1-196-123.894v-.12a2.91,2.91,0,0,1,2.907-2.907,2.9,2.9,0,0,1,2.067.865v-3.868h.84Zm6.317.12a2.91,2.91,0,0,1-2.907,2.907,2.91,2.91,0,0,1-2.907-2.907v-.12a2.91,2.91,0,0,1,2.907-2.907,2.91,2.91,0,0,1,2.907,2.907Z" transform="translate(216.45 141.069)" fill="#b4b4b4"/>
  </g>
</svg>
