<svg xmlns="http://www.w3.org/2000/svg" width="26.66" height="14.049" viewBox="0 0 26.66 14.049">
  <g id="Group_1246" data-name="Group 1246" transform="translate(-88 -167.907)">
    <path id="Path_440" data-name="Path 440" d="M94.024,181.621a1.4,1.4,0,1,0,1.984-1.984l-4.621-4.62,4.621-4.62a1.4,1.4,0,0,0-1.984-1.984l-5.613,5.613a1.4,1.4,0,0,0,0,1.984h0Z" transform="translate(0 -0.077)" fill="#e5007d"/>
    <path id="Path_441" data-name="Path 441" d="M192.411,181.621a1.4,1.4,0,0,0,1.984,0h0l5.613-5.613a1.4,1.4,0,0,0,0-1.984h0l-5.613-5.613a1.4,1.4,0,0,0-1.984,1.984l4.621,4.62-4.621,4.62a1.4,1.4,0,0,0,0,1.984Z" transform="translate(-85.759 -0.077)" fill="#e5007d"/>
    <path id="Path_442" data-name="Path 442" d="M144.91,181.865a1.4,1.4,0,0,0,1.806-.819v0l4.209-11.225a1.4,1.4,0,1,0-2.615-1.017l-.012.032-4.209,11.225A1.4,1.4,0,0,0,144.91,181.865Z" transform="translate(-46.177)" fill="#e5007d"/>
  </g>
</svg>
