<svg xmlns="http://www.w3.org/2000/svg" width="17.371" height="17.371" viewBox="0 0 17.371 17.371"><defs><style>.a{fill:#818e94;}</style></defs><path class="a" d="M3,8V18.857a.724.724,0,0,0,.724.724H15.3a.724.724,0,0,0,.724-.724V8Zm4.343,7.962H5.9V11.619H7.343Zm2.9,0H8.79V11.619h1.448Zm2.9,0H11.686V11.619h1.448Z" transform="translate(-0.829 -2.21)"/><path class="a" d="M16.647,2.9H12.3V.724A.724.724,0,0,0,11.581,0H5.79a.724.724,0,0,0-.724.724V2.9H.724a.724.724,0,1,0,0,1.448H16.647a.724.724,0,1,0,0-1.448ZM6.514,1.448h4.343V2.9H6.514Z"/></svg>