<svg xmlns="http://www.w3.org/2000/svg" width="92" height="92" viewBox="0 0 92 92">
  <g id="Groupe_6" data-name="Groupe 6" transform="translate(-814 -314)">
    <path id="Tracé_18" data-name="Tracé 18" d="M851.1,435.419a7.39,7.39,0,0,0-12.918-4.934A18.22,18.22,0,0,0,814,447.755v21.793a7.433,7.433,0,0,0,5.935,7.27v3.117H822.9v11.871H851.1V478.72a16.233,16.233,0,0,0-9.023-14.6l-2.848-1.424v-2.051h2.051a5.394,5.394,0,0,0,2.4-.567,5.336,5.336,0,0,0,2.968-4.8V454.3l4.452-1.484v-1.069c0-3.276-3.045-6.906-5.391-9.221A7.406,7.406,0,0,0,851.1,435.419Zm-19.29,53.419h-5.935v-8.9h5.935Zm-8.9-11.871v-5.935a5.935,5.935,0,0,1,11.871,0v5.935Zm25.063-26.241-4.288,1.43v3.12a2.4,2.4,0,0,1-2.4,2.4H833.29v2.968h2.968v3.885l4.488,2.245a13.279,13.279,0,0,1,7.383,11.945v10.118H834.774v-8.9h2.968v-8.9a8.913,8.913,0,0,0-7.419-8.77v-2.751l3.475-6.95-2.267-1.134a2.183,2.183,0,0,1,.977-4.137h1.853l1.146-3.436a1.48,1.48,0,0,1,1.407-1.015h4.752C843.992,444.788,847.209,448.179,847.966,450.727Zm-4.288-10.856h-6.765a4.445,4.445,0,0,0-4.223,3.045l-.472,1.415a5.152,5.152,0,0,0-2.393,9.543l-2.469,4.938v3.453a8.909,8.909,0,0,0-7.419,8.768v2.694a4.446,4.446,0,0,1-2.968-4.178V447.755a15.3,15.3,0,0,1,19.7-14.658,7.347,7.347,0,0,0-.408,2.322h2.968a4.452,4.452,0,1,1,4.452,4.452Z" transform="translate(0 -85.806)" fill="#e5007d"/>
    <path id="Tracé_19" data-name="Tracé 19" d="M1046.064,319.935h-4.6a7.417,7.417,0,0,0-13.205-2.963,7.417,7.417,0,0,0-13.205,2.963h-4.6a4.456,4.456,0,0,0-4.452,4.452v20.774a4.456,4.456,0,0,0,4.452,4.452h15.406l2.051,4.1a3.318,3.318,0,0,0,6.285-1.485v-2.618h11.871a4.456,4.456,0,0,0,4.452-4.452V324.387A4.456,4.456,0,0,0,1046.064,319.935Zm-30.309,4.861a7.4,7.4,0,0,0,6.567,4.042v-2.968a4.452,4.452,0,1,1,4.452-4.452h2.968a4.452,4.452,0,1,1,8.593,1.6,7.261,7.261,0,0,0-1.174-.119v2.968a4.406,4.406,0,0,1,3.6,7.01,7.4,7.4,0,0,0-6.568-4.042v2.968a4.452,4.452,0,1,1-4.452,4.452h-2.968a4.452,4.452,0,1,1-8.593-1.6,7.262,7.262,0,0,0,1.174.119v-2.968a4.406,4.406,0,0,1-3.6-7.01Zm31.793,20.365a1.487,1.487,0,0,1-1.484,1.484h-14.839v5.586a.364.364,0,0,1-.664.156l-2.871-5.741h-17.239a1.487,1.487,0,0,1-1.484-1.484V324.387a1.487,1.487,0,0,1,1.484-1.484h2.978a7.376,7.376,0,0,0,1.979,10.711,7.408,7.408,0,0,0,12.849,7.091,7.417,7.417,0,0,0,13.355-4.447v0a7.395,7.395,0,0,0-.506-12.193,7.291,7.291,0,0,0,.338-1.16h4.62a1.487,1.487,0,0,1,1.484,1.484Z" transform="translate(-144.516)" fill="#e5007d"/>
    <path id="Tracé_20" data-name="Tracé 20" d="M1028.064,487.935H1007.29v-2.618a3.318,3.318,0,0,0-6.285-1.484l-2.051,4.1h-6.5A4.456,4.456,0,0,0,988,492.387v20.774a4.456,4.456,0,0,0,4.452,4.452h35.613a4.456,4.456,0,0,0,4.452-4.452V492.387A4.456,4.456,0,0,0,1028.064,487.935Zm1.484,25.226a1.485,1.485,0,0,1-1.484,1.484H992.452a1.486,1.486,0,0,1-1.484-1.484V492.387a1.486,1.486,0,0,1,1.484-1.484h8.336l2.87-5.741a.364.364,0,0,1,.665.156V490.9h23.742a1.486,1.486,0,0,1,1.484,1.484Z" transform="translate(-130.968 -126.452)" fill="#e5007d"/>
    <path id="Tracé_21" data-name="Tracé 21" d="M1016.452,548a4.452,4.452,0,1,0,4.452,4.452A4.456,4.456,0,0,0,1016.452,548Zm0,5.935a1.484,1.484,0,1,1,1.484-1.484A1.486,1.486,0,0,1,1016.452,553.935Z" transform="translate(-149.032 -176.129)" fill="#e5007d"/>
    <path id="Tracé_22" data-name="Tracé 22" d="M1064.452,548a4.452,4.452,0,1,0,4.452,4.452A4.456,4.456,0,0,0,1064.452,548Zm0,5.935a1.484,1.484,0,1,1,1.484-1.484A1.486,1.486,0,0,1,1064.452,553.935Z" transform="translate(-185.161 -176.129)" fill="#e5007d"/>
    <path id="Tracé_23" data-name="Tracé 23" d="M1112.452,548a4.452,4.452,0,1,0,4.452,4.452A4.456,4.456,0,0,0,1112.452,548Zm0,5.935a1.484,1.484,0,1,1,1.484-1.484A1.486,1.486,0,0,1,1112.452,553.935Z" transform="translate(-221.29 -176.129)" fill="#e5007d"/>
  </g>
</svg>
