<svg xmlns="http://www.w3.org/2000/svg" xmlns:xlink="http://www.w3.org/1999/xlink" width="92.408" height="92" viewBox="0 0 92.408 92">
  <defs>
    <clipPath id="clip-path">
      <rect id="Rectangle_1604" data-name="Rectangle 1604" width="92.408" height="86.203" fill="#fff"/>
    </clipPath>
  </defs>
  <g id="Groupe_1352" data-name="Groupe 1352" transform="translate(-1530 -1164)">
    <rect id="Rectangle_1605" data-name="Rectangle 1605" width="92" height="92" transform="translate(1530 1164)" fill="none"/>
    <g id="Groupe_1353" data-name="Groupe 1353" transform="translate(1530 1167)">
      <g id="Groupe_1352-2" data-name="Groupe 1352" clip-path="url(#clip-path)">
        <path id="Tracé_451" data-name="Tracé 451" d="M87.9,77.18H86.75V54.826a1.354,1.354,0,1,0-2.707,0V77.18H55.327v-36.8h27.61a1.108,1.108,0,0,1,1.106,1.106v6.96a1.354,1.354,0,0,0,2.707,0v-6.96a3.818,3.818,0,0,0-3.814-3.813H55.327v-24.6a3.832,3.832,0,0,0-3.493-3.8V6.562a3.832,3.832,0,0,0-3.516-3.8L13.262.013a3.816,3.816,0,0,0-4.111,3.8V5.982a3.814,3.814,0,0,0-3.493,3.8v67.4H4.512a4.512,4.512,0,0,0,0,9.024H87.9a4.512,4.512,0,1,0,0-9.024M11.857,3.815a1.106,1.106,0,0,1,1.193-1.1L48.107,5.459a1.112,1.112,0,0,1,1.02,1.1v2.5L11.857,6.143V3.815ZM8.365,9.782a1.106,1.106,0,0,1,1.193-1.1L51.6,11.974a1.112,1.112,0,0,1,1.02,1.1v64.1H48.837V57.8A2.237,2.237,0,0,0,46.6,55.565H34.027A2.237,2.237,0,0,0,31.793,57.8V66.58a1.354,1.354,0,1,0,2.707,0V58.272H46.13V77.18H34.5V72.909a1.354,1.354,0,1,0-2.707,0V77.18H8.365ZM87.9,83.5H4.512a1.8,1.8,0,0,1,0-3.61H87.9a1.8,1.8,0,0,1,0,3.61" transform="translate(0 0)" fill="#fff"/>
        <path id="Tracé_452" data-name="Tracé 452" d="M65.3,105.4h5.479a2.339,2.339,0,0,0,2.336-2.336V98.85a2.339,2.339,0,0,0-2.336-2.336H65.3a2.339,2.339,0,0,0-2.336,2.336v4.216A2.339,2.339,0,0,0,65.3,105.4m.371-6.18h4.737v3.473H65.67Z" transform="translate(-51.599 -79.095)" fill="#fff"/>
        <path id="Tracé_453" data-name="Tracé 453" d="M140.993,105.4h5.479a2.339,2.339,0,0,0,2.336-2.336V98.85a2.339,2.339,0,0,0-2.336-2.336h-5.479a2.339,2.339,0,0,0-2.336,2.336v4.216a2.338,2.338,0,0,0,2.336,2.336m.371-6.18H146.1v3.473h-4.736Z" transform="translate(-113.632 -79.095)" fill="#fff"/>
        <path id="Tracé_454" data-name="Tracé 454" d="M216.686,105.4h5.479a2.338,2.338,0,0,0,2.336-2.336V98.85a2.339,2.339,0,0,0-2.336-2.336h-5.479a2.339,2.339,0,0,0-2.336,2.336v4.216a2.338,2.338,0,0,0,2.336,2.336m.371-6.18h4.736v3.473h-4.736Z" transform="translate(-175.663 -79.095)" fill="#fff"/>
        <path id="Tracé_455" data-name="Tracé 455" d="M65.3,172.837h5.479a2.339,2.339,0,0,0,2.336-2.336v-4.216a2.339,2.339,0,0,0-2.336-2.336H65.3a2.339,2.339,0,0,0-2.336,2.336V170.5a2.339,2.339,0,0,0,2.336,2.336m.371-6.18h4.737v3.473H65.67Z" transform="translate(-51.599 -134.36)" fill="#fff"/>
        <path id="Tracé_456" data-name="Tracé 456" d="M140.993,172.837h5.479a2.339,2.339,0,0,0,2.336-2.336v-4.216a2.339,2.339,0,0,0-2.336-2.336h-5.479a2.339,2.339,0,0,0-2.336,2.336V170.5a2.338,2.338,0,0,0,2.336,2.336m.371-6.18H146.1v3.473h-4.736Z" transform="translate(-113.632 -134.36)" fill="#fff"/>
        <path id="Tracé_457" data-name="Tracé 457" d="M216.686,172.837h5.479A2.338,2.338,0,0,0,224.5,170.5v-4.216a2.339,2.339,0,0,0-2.336-2.336h-5.479a2.339,2.339,0,0,0-2.336,2.336V170.5a2.338,2.338,0,0,0,2.336,2.336m.371-6.18h4.736v3.473h-4.736Z" transform="translate(-175.663 -134.36)" fill="#fff"/>
        <path id="Tracé_458" data-name="Tracé 458" d="M65.3,240.274h5.479a2.339,2.339,0,0,0,2.336-2.336v-4.216a2.339,2.339,0,0,0-2.336-2.336H65.3a2.339,2.339,0,0,0-2.336,2.336v4.216a2.339,2.339,0,0,0,2.336,2.336m.371-6.18h4.737v3.473H65.67Z" transform="translate(-51.599 -189.625)" fill="#fff"/>
        <path id="Tracé_459" data-name="Tracé 459" d="M77.688,307.864H65.562a2.6,2.6,0,0,0-2.6,2.6v3.689a2.6,2.6,0,0,0,2.6,2.6H77.688a2.6,2.6,0,0,0,2.6-2.6v-3.689a2.6,2.6,0,0,0-2.6-2.6m-.108,6.18H65.67v-3.473H77.58Z" transform="translate(-51.599 -252.299)" fill="#fff"/>
        <path id="Tracé_460" data-name="Tracé 460" d="M140.993,240.274h5.479a2.339,2.339,0,0,0,2.336-2.336v-4.216a2.339,2.339,0,0,0-2.336-2.336h-5.479a2.339,2.339,0,0,0-2.336,2.336v4.216a2.338,2.338,0,0,0,2.336,2.336m.371-6.18H146.1v3.473h-4.736Z" transform="translate(-113.632 -189.625)" fill="#fff"/>
        <path id="Tracé_461" data-name="Tracé 461" d="M216.686,240.274h5.479a2.338,2.338,0,0,0,2.336-2.336v-4.216a2.339,2.339,0,0,0-2.336-2.336h-5.479a2.339,2.339,0,0,0-2.336,2.336v4.216a2.338,2.338,0,0,0,2.336,2.336m.371-6.18h4.736v3.473h-4.736Z" transform="translate(-175.663 -189.625)" fill="#fff"/>
        <path id="Tracé_462" data-name="Tracé 462" d="M332.859,262.8a2.493,2.493,0,0,0-2.49-2.49h-5.528a2.493,2.493,0,0,0-2.49,2.49v4.385a2.493,2.493,0,0,0,2.49,2.49h5.528a2.493,2.493,0,0,0,2.49-2.49Zm-2.707,4.167h-5.094v-3.95h5.094Z" transform="translate(-264.172 -213.33)" fill="#fff"/>
        <path id="Tracé_463" data-name="Tracé 463" d="M330.369,329.529h-5.528a2.493,2.493,0,0,0-2.49,2.49V336.4a2.493,2.493,0,0,0,2.49,2.49h5.528a2.493,2.493,0,0,0,2.49-2.49v-4.385a2.493,2.493,0,0,0-2.49-2.49m-.217,6.658h-5.094v-3.95h5.094Z" transform="translate(-264.172 -270.054)" fill="#fff"/>
        <path id="Tracé_464" data-name="Tracé 464" d="M402.62,262.8a2.493,2.493,0,0,0-2.49-2.49H394.6a2.493,2.493,0,0,0-2.49,2.49v4.385a2.493,2.493,0,0,0,2.49,2.49h5.528a2.493,2.493,0,0,0,2.49-2.49Zm-2.707,4.167h-5.093v-3.95h5.093Z" transform="translate(-321.342 -213.33)" fill="#fff"/>
        <path id="Tracé_465" data-name="Tracé 465" d="M400.13,329.529H394.6a2.493,2.493,0,0,0-2.49,2.49V336.4a2.493,2.493,0,0,0,2.49,2.49h5.528a2.493,2.493,0,0,0,2.49-2.49v-4.385a2.493,2.493,0,0,0-2.49-2.49m-.217,6.658h-5.093v-3.95h5.093Z" transform="translate(-321.342 -270.054)" fill="#fff"/>
      </g>
    </g>
  </g>
</svg>
