<svg xmlns="http://www.w3.org/2000/svg" xmlns:xlink="http://www.w3.org/1999/xlink" width="97" height="91" viewBox="0 0 97 91">
  <defs>
    <clipPath id="clip-path">
      <rect id="Rectangle_113" data-name="Rectangle 113" width="97" height="91" transform="translate(0 -0.223)" fill="#e5007d"/>
    </clipPath>
  </defs>
  <g id="Groupe_5" data-name="Groupe 5" transform="translate(-774 -288.777)">
    <g id="Groupe_4" data-name="Groupe 4" transform="translate(774 289)">
      <g id="Groupe_3" data-name="Groupe 3" transform="translate(0 0)" clip-path="url(#clip-path)">
        <path id="Tracé_8" data-name="Tracé 8" d="M774,348.986a14.8,14.8,0,0,0,9.779,13.906v3.968a11.4,11.4,0,0,0,17.235,9.8,11.4,11.4,0,0,0,19.063-8.448v-13.29h4.845v13.29a11.4,11.4,0,0,0,19.063,8.447,11.4,11.4,0,0,0,17.234-9.8v-3.969a14.766,14.766,0,0,0,4.237-25.43,10.934,10.934,0,0,0-2.822-18.341,14.785,14.785,0,0,0-18.5-18.327,9.716,9.716,0,1,0-19.213-2.055v14.977h-4.845V298.738a9.718,9.718,0,1,0-19.213,2.056,14.779,14.779,0,0,0-18.5,18.327,10.938,10.938,0,0,0-2.822,18.34A14.755,14.755,0,0,0,774,348.986Zm33.049,3.357a2.578,2.578,0,0,1-2.575-2.575v-30.9a2.578,2.578,0,0,1,2.575-2.575h30.9a2.578,2.578,0,0,1,2.575,2.575v30.9a2.578,2.578,0,0,1-2.575,2.575ZM827.5,298.738a7.143,7.143,0,1,1,13.362,3.519c-.4.24-.786.5-1.164.776a1.288,1.288,0,1,0,1.531,2.071,12.2,12.2,0,0,1,17.809,15.923,1.288,1.288,0,1,0,2.229,1.29q.225-.391.427-.8a8.354,8.354,0,0,1,1.507,14.44,14.689,14.689,0,0,0-6.975-1.754,1.288,1.288,0,0,0,0,2.575,12.2,12.2,0,0,1,0,24.4,1.288,1.288,0,0,0,0,2.575,14.752,14.752,0,0,0,2.422-.2v3.3a8.829,8.829,0,0,1-17.658,0,1.288,1.288,0,1,0-2.575,0,11.362,11.362,0,0,0,3.486,8.2,8.827,8.827,0,0,1-14.4-6.847V354.918h10.453a5.156,5.156,0,0,0,5.15-5.15v-30.9a5.157,5.157,0,0,0-5.15-5.15H827.5Zm-47.788,35.056a8.34,8.34,0,0,1,3.6-12.272q.2.4.427.8a1.288,1.288,0,1,0,2.229-1.289,12.2,12.2,0,0,1,17.81-15.923,1.288,1.288,0,0,0,1.531-2.071c-.378-.279-.767-.536-1.164-.776a7.144,7.144,0,1,1,13.362-3.519v14.976H807.049a5.157,5.157,0,0,0-5.15,5.15v30.9a5.156,5.156,0,0,0,5.15,5.15H817.5v13.29a8.827,8.827,0,0,1-14.4,6.847,11.362,11.362,0,0,0,3.486-8.2,1.288,1.288,0,1,0-2.575,0,8.829,8.829,0,1,1-17.659,0v-3.3a14.777,14.777,0,0,0,2.422.2,1.288,1.288,0,0,0,0-2.575,12.2,12.2,0,0,1,0-24.4,1.288,1.288,0,0,0,0-2.575,14.689,14.689,0,0,0-6.975,1.754,8.294,8.294,0,0,1-2.092-2.169Zm0,0" transform="translate(-774 -289)" fill="#e5007d"/>
      </g>
    </g>
    <path id="Tracé_9" data-name="Tracé 9" d="M947.554,370.5a1.288,1.288,0,0,0,1.288-1.288v-3.759a1.288,1.288,0,1,0-2.575,0v3.759a1.288,1.288,0,0,0,1.288,1.288Zm0,0" transform="translate(-135.297 -59.034)" fill="#e5007d"/>
    <path id="Tracé_10" data-name="Tracé 10" d="M1043.022,364.164a1.288,1.288,0,0,0-1.288,1.288v3.759a1.288,1.288,0,0,0,2.575,0v-3.759a1.288,1.288,0,0,0-1.288-1.288Zm0,0" transform="translate(-210.278 -59.034)" fill="#e5007d"/>
    <path id="Tracé_11" data-name="Tracé 11" d="M947.554,612.982a1.288,1.288,0,0,0,1.288-1.288v-3.759a1.288,1.288,0,0,0-2.575,0v3.759a1.287,1.287,0,0,0,1.288,1.288Zm0,0" transform="translate(-135.297 -249.48)" fill="#e5007d"/>
    <path id="Tracé_12" data-name="Tracé 12" d="M1043.022,606.648a1.288,1.288,0,0,0-1.288,1.288v3.759a1.288,1.288,0,0,0,2.575,0v-3.759a1.288,1.288,0,0,0-1.288-1.288Zm0,0" transform="translate(-210.278 -249.48)" fill="#e5007d"/>
    <path id="Tracé_13" data-name="Tracé 13" d="M1107.768,449.005h3.759a1.288,1.288,0,1,0,0-2.575h-3.759a1.288,1.288,0,0,0,0,2.575Zm0,0" transform="translate(-261.129 -123.645)" fill="#e5007d"/>
    <path id="Tracé_14" data-name="Tracé 14" d="M1107.768,544.473h3.759a1.288,1.288,0,1,0,0-2.575h-3.759a1.288,1.288,0,0,0,0,2.575Zm0,0" transform="translate(-261.129 -198.626)" fill="#e5007d"/>
    <path id="Tracé_15" data-name="Tracé 15" d="M865.288,449.005h3.759a1.288,1.288,0,0,0,0-2.575h-3.759a1.288,1.288,0,0,0,0,2.575Zm0,0" transform="translate(-70.686 -123.645)" fill="#e5007d"/>
    <path id="Tracé_16" data-name="Tracé 16" d="M865.288,544.473h3.759a1.288,1.288,0,0,0,0-2.575h-3.759a1.288,1.288,0,0,0,0,2.575Zm0,0" transform="translate(-70.686 -198.626)" fill="#e5007d"/>
    <path id="Tracé_17" data-name="Tracé 17" d="M958.186,429.164h-27.9A1.288,1.288,0,0,0,929,430.452v27.9a1.288,1.288,0,0,0,1.288,1.288h27.9a1.288,1.288,0,0,0,1.288-1.288v-27.9a1.288,1.288,0,0,0-1.288-1.288Zm-1.288,27.9H931.575V431.739H956.9Zm0,0" transform="translate(-121.737 -110.085)" fill="#e5007d"/>
  </g>
</svg>
