<svg xmlns="http://www.w3.org/2000/svg" width="40" height="45.714" viewBox="0 0 40 45.714">
  <path id="Icon_awesome-user-tie" data-name="Icon awesome-user-tie" d="M20,22.857A11.428,11.428,0,0,0,31.429,11.429a11.556,11.556,0,0,0-4.253-8.9A11.179,11.179,0,0,0,20,0a11.429,11.429,0,0,0,0,22.857Zm8.554,2.911L24.286,42.857,21.429,30.714l2.857-5H15.714l2.857,5L15.714,42.857,11.446,25.768A11.979,11.979,0,0,0,0,37.714v3.714a4.287,4.287,0,0,0,4.286,4.286H35.714A4.287,4.287,0,0,0,40,41.429V37.714A11.979,11.979,0,0,0,28.554,25.768Z" fill="#e5007d"/>
</svg>
