<svg xmlns="http://www.w3.org/2000/svg" width="32" height="28.316" viewBox="0 0 32 28.316">
  <path id="Icon_awesome-reply" data-name="Icon awesome-reply" d="M.487,11.5,10.8,2.593a1.407,1.407,0,0,1,2.325,1.064V8.348c6,.069,11.216.861,14.422,3.962C29.022,13.725,30,16.032,30,19.261a11.978,11.978,0,0,1-4.883,9.031A1.044,1.044,0,0,1,23.472,27.2c2.657-8.5-1.26-10.753-10.347-10.883v5.151A1.407,1.407,0,0,1,10.8,22.533L.487,13.627a1.407,1.407,0,0,1,0-2.129Z" transform="translate(1 -1.221)" fill="#e5007d" stroke="#e5137d" stroke-width="2"/>
</svg>
