<svg xmlns="http://www.w3.org/2000/svg" width="20" height="20" viewBox="0 0 20 20"><defs><style>.a{fill:#b4b4b4;}</style></defs><g transform="translate(-1 -1)"><path class="a" d="M30.872,7H20.418a.418.418,0,1,0,0,.836H30.872a.418.418,0,1,0,0-.836Z" transform="translate(-10.29 -3.491)"/><path class="a" d="M7.272,1H3.927a.418.418,0,0,0-.418.418V3.509H1.418a.418.418,0,1,0,0,.836H3.509V6.436a.418.418,0,0,0,.418.418H7.272a.418.418,0,0,0,.418-.418V1.418A.418.418,0,0,0,7.272,1Z"/><path class="a" d="M1.418,23H11.872a.418.418,0,0,1,0,.836H1.418a.418.418,0,0,1,0-.836Z" transform="translate(0 -12.418)"/><path class="a" d="M31.418,17h3.345a.418.418,0,0,1,.418.418v2.091h2.091a.418.418,0,1,1,0,.836H35.181v2.091a.418.418,0,0,1-.418.418H31.418A.418.418,0,0,1,31,22.436V17.418A.418.418,0,0,1,31.418,17Z" transform="translate(-16.69 -8.927)"/><path class="a" d="M30.872,39H20.418a.418.418,0,1,0,0,.836H30.872a.418.418,0,1,0,0-.836Z" transform="translate(-10.29 -21.345)"/><path class="a" d="M7.272,33H3.927a.418.418,0,0,0-.418.418v2.091H1.418a.418.418,0,1,0,0,.836H3.509v2.091a.418.418,0,0,0,.418.418H7.272a.418.418,0,0,0,.418-.418V33.418A.418.418,0,0,0,7.272,33Z" transform="translate(0 -17.854)"/></g></svg>