<svg xmlns="http://www.w3.org/2000/svg" width="18" height="18" viewBox="0 0 18 18">
  <g id="Groupe_1255" data-name="Groupe 1255" transform="translate(-150.891 -586.326)">
    <path id="Tracé_444" data-name="Tracé 444" d="M168.891,588.751V601.9a2.426,2.426,0,0,1-2.426,2.426h-3.859l.011-6.432h2.222a.4.4,0,0,0,.391-.348l.246-2.073a.394.394,0,0,0-.391-.441h-2.479V593.3c0-.786.218-1.323,1.347-1.323H165a.4.4,0,0,0,.394-.395v-1.748a.394.394,0,0,0-.395-.395h-1.7a3.273,3.273,0,0,0-3.494,3.591v2h-1.668a.394.394,0,0,0-.394.4l.008,2.073a.394.394,0,0,0,.394.393h1.671l-.011,6.432h-6.485a2.426,2.426,0,0,1-2.426-2.426V588.751a2.425,2.425,0,0,1,2.426-2.425h13.149A2.426,2.426,0,0,1,168.891,588.751Z" transform="translate(0)" fill="#475993"/>
    <g id="Groupe_1254" data-name="Groupe 1254" transform="translate(157.739 589.438)">
      <path id="Tracé_445" data-name="Tracé 445" d="M313.763,662.584h-2.478V660.85c0-.787.218-1.323,1.346-1.323h1.044a.394.394,0,0,0,.394-.394v-1.748a.394.394,0,0,0-.394-.394h-1.7a3.273,3.273,0,0,0-3.494,3.591v2h-1.668a.394.394,0,0,0-.394.4l.008,2.073a.394.394,0,0,0,.394.393h1.671l-.011,6.432h2.805l.011-6.432h2.222a.394.394,0,0,0,.392-.348l.246-2.073A.394.394,0,0,0,313.763,662.584Z" transform="translate(-306.417 -656.99)" fill="#fff"/>
    </g>
  </g>
</svg>
